<?xml version="1.0" encoding="utf-8"?>
<!-- Generator: Adobe Illustrator 15.0.0, SVG Export Plug-In . SVG Version: 6.00 Build 0)  -->
<!DOCTYPE svg PUBLIC "-//W3C//DTD SVG 1.1//EN" "http://www.w3.org/Graphics/SVG/1.1/DTD/svg11.dtd">
<svg version="1.1" id="Layer_1" xmlns="http://www.w3.org/2000/svg" xmlns:xlink="http://www.w3.org/1999/xlink" x="0px" y="0px"
	 width="237.307px" height="50.127px" viewBox="0 0 237.307 50.127" enable-background="new 0 0 237.307 50.127"
	 xml:space="preserve">
<g>
	<polygon fill="#81D5F2" points="41.278,31.69 60.408,24.234 42.285,17.173 23.153,24.631 	"/>
	<polygon fill="#81D5F2" points="45.306,33.259 65.442,41.106 84.57,33.65 64.438,25.804 	"/>
	<polygon fill="#81D5F2" points="37.252,33.259 19.128,26.195 0,33.65 18.121,40.71 	"/>
	<polygon fill="#81D5F2" points="41.278,34.828 22.148,42.279 42.285,50.127 61.417,42.673 	"/>
</g>
<g>
	<path d="M50.698,25.74c0,2.956-1.063,5.282-3.19,6.983c-2.126,1.701-5.085,2.552-8.875,2.552c-3.492,0-6.581-0.655-9.267-1.971
		v-6.445c2.208,0.985,4.077,1.679,5.607,2.082c1.529,0.402,2.928,0.604,4.196,0.604c1.522,0,2.69-0.289,3.504-0.873
		c0.813-0.582,1.219-1.447,1.219-2.597c0-0.642-0.179-1.211-0.537-1.711c-0.359-0.499-0.885-0.981-1.578-1.444
		c-0.695-0.462-2.108-1.201-4.242-2.215c-2-0.941-3.499-1.843-4.499-2.708c-1-0.866-1.799-1.873-2.396-3.022
		s-0.896-2.492-0.896-4.029c0-2.895,0.981-5.171,2.943-6.828c1.963-1.655,4.675-2.484,8.137-2.484c1.701,0,3.324,0.202,4.868,0.606
		c1.545,0.401,3.16,0.969,4.846,1.701l-2.237,5.395c-1.746-0.717-3.19-1.217-4.332-1.501c-1.142-0.282-2.264-0.424-3.369-0.424
		c-1.313,0-2.321,0.306-3.022,0.917c-0.702,0.612-1.051,1.409-1.051,2.395c0,0.612,0.141,1.145,0.424,1.601
		c0.284,0.456,0.735,0.896,1.354,1.319c0.62,0.426,2.085,1.191,4.398,2.294c3.059,1.464,5.156,2.931,6.29,4.399
		C50.13,21.805,50.698,23.607,50.698,25.74z"/>
	<path d="M66.635,29.837c1.193,0,2.627-0.262,4.298-0.783v5.081c-1.701,0.762-3.791,1.141-6.267,1.141
		c-2.731,0-4.72-0.689-5.965-2.07c-1.246-1.379-1.869-3.45-1.869-6.212V14.929h-3.268v-2.887l3.759-2.284l1.97-5.281h4.366v5.327
		h7.005v5.125h-7.005v12.064c0,0.972,0.271,1.687,0.816,2.15C65.019,29.605,65.739,29.837,66.635,29.837z"/>
	<path d="M98.732,22.272c0,4.073-1.074,7.259-3.223,9.556c-2.148,2.299-5.141,3.447-8.976,3.447c-2.402,0-4.521-0.525-6.356-1.578
		c-1.836-1.052-3.246-2.563-4.23-4.531c-0.985-1.971-1.478-4.268-1.478-6.894c0-4.09,1.066-7.268,3.2-9.536
		c2.134-2.269,5.134-3.402,8.998-3.402c2.403,0,4.521,0.522,6.357,1.567c1.836,1.043,3.246,2.544,4.23,4.499
		C98.241,17.355,98.732,19.646,98.732,22.272z M81.431,22.272c0,2.476,0.407,4.349,1.221,5.616c0.813,1.269,2.138,1.902,3.972,1.902
		c1.821,0,3.131-0.629,3.929-1.891c0.799-1.261,1.197-3.138,1.197-5.628c0-2.479-0.402-4.336-1.208-5.575s-2.127-1.856-3.962-1.856
		c-1.82,0-3.134,0.615-3.939,1.845C81.834,17.917,81.431,19.779,81.431,22.272z"/>
	<path d="M118.341,9.334c0.924,0,1.692,0.066,2.306,0.2l-0.516,6.401c-0.552-0.147-1.224-0.224-2.015-0.224
		c-2.179,0-3.876,0.56-5.093,1.679c-1.216,1.12-1.823,2.687-1.823,4.701v12.736h-6.827V9.804h5.17l1.008,4.207h0.336
		c0.775-1.4,1.824-2.532,3.145-3.39C115.353,9.762,116.787,9.334,118.341,9.334z"/>
	<path d="M121.608,9.804h7.477l4.723,14.079c0.404,1.224,0.68,2.671,0.828,4.342h0.136c0.164-1.535,0.483-2.984,0.961-4.342
		l4.633-14.079h7.32l-10.588,28.225c-0.972,2.612-2.354,4.567-4.152,5.864c-1.798,1.299-3.898,1.948-6.301,1.948
		c-1.179,0-2.336-0.128-3.469-0.382v-5.416c0.82,0.193,1.716,0.292,2.686,0.292c1.209,0,2.264-0.37,3.168-1.107
		c0.902-0.739,1.607-1.855,2.114-3.348l0.402-1.231L121.608,9.804z"/>
	<path d="M163.041,35.275c-1.599,0-3.058-0.295-4.377-0.883c-1.321-0.59-2.429-1.497-3.324-2.721h-0.27
		c0.18,1.434,0.27,2.79,0.27,4.073v10.096h-3.715V10.295h3.021l0.516,3.358h0.178c0.954-1.343,2.067-2.313,3.336-2.91
		c1.268-0.596,2.723-0.896,4.365-0.896c3.252,0,5.763,1.111,7.531,3.336c1.768,2.223,2.65,5.343,2.65,9.356
		c0,4.029-0.897,7.159-2.694,9.39C168.729,34.16,166.233,35.275,163.041,35.275z M162.502,13.004c-2.507,0-4.319,0.693-5.437,2.083
		c-1.119,1.387-1.695,3.596-1.726,6.625v0.828c0,3.447,0.574,5.912,1.726,7.397c1.147,1.484,2.99,2.227,5.528,2.227
		c2.118,0,3.777-0.857,4.979-2.572c1.201-1.718,1.801-4.082,1.801-7.096c0-3.061-0.6-5.407-1.801-7.04
		C166.371,13.821,164.681,13.004,162.502,13.004z"/>
	<path d="M183.433,34.828h-3.718V0h3.718V34.828z"/>
	<path d="M206.398,34.828l-0.74-3.492h-0.18c-1.223,1.537-2.442,2.579-3.657,3.122c-1.22,0.546-2.736,0.817-4.558,0.817
		c-2.431,0-4.337-0.627-5.718-1.881c-1.382-1.253-2.071-3.035-2.071-5.349c0-4.954,3.964-7.551,11.887-7.789l4.161-0.136v-1.521
		c0-1.925-0.411-3.346-1.241-4.264c-0.827-0.919-2.152-1.377-3.972-1.377c-2.046,0-4.356,0.626-6.939,1.881l-1.144-2.845
		c1.212-0.655,2.535-1.171,3.974-1.542c1.441-0.374,2.885-0.56,4.334-0.56c2.922,0,5.091,0.648,6.499,1.947
		c1.412,1.297,2.117,3.38,2.117,6.244v16.743H206.398z M198.004,32.21c2.313,0,4.129-0.634,5.45-1.903
		c1.321-1.269,1.98-3.044,1.98-5.326v-2.217l-3.716,0.156c-2.956,0.105-5.084,0.563-6.39,1.377
		c-1.308,0.813-1.959,2.078-1.959,3.793c0,1.344,0.406,2.367,1.22,3.066C195.403,31.858,196.54,32.21,198.004,32.21z"/>
	<path d="M233.593,34.828v-15.87c0-1.999-0.455-3.492-1.367-4.478c-0.909-0.983-2.334-1.477-4.273-1.477
		c-2.566,0-4.449,0.693-5.64,2.083c-1.195,1.387-1.791,3.678-1.791,6.871v12.87h-3.718V10.295h3.022l0.604,3.358h0.18
		c0.762-1.209,1.826-2.145,3.202-2.808c1.371-0.666,2.901-0.998,4.589-0.998c2.954,0,5.177,0.714,6.668,2.139
		c1.493,1.425,2.238,3.704,2.238,6.838v16.004H233.593z"/>
</g>
</svg>
