<?xml version="1.0" encoding="utf-8"?>
<!-- Generator: Adobe Illustrator 15.0.0, SVG Export Plug-In . SVG Version: 6.00 Build 0)  -->
<!DOCTYPE svg PUBLIC "-//W3C//DTD SVG 1.1//EN" "http://www.w3.org/Graphics/SVG/1.1/DTD/svg11.dtd">
<svg version="1.1" id="Layer_1" xmlns="http://www.w3.org/2000/svg" xmlns:xlink="http://www.w3.org/1999/xlink" x="0px" y="0px"
	 width="237.307px" height="50.127px" viewBox="0 0 237.307 50.127" enable-background="new 0 0 237.307 50.127"
	 xml:space="preserve">
<path fill="#29ABE2" d="M41.545,27.926c0-0.639-0.182-1.21-0.538-1.709c-0.36-0.5-0.886-0.982-1.581-1.445
	c-0.694-0.464-2.11-1.204-4.242-2.221c-0.535-0.248-1.027-0.492-1.491-0.742l-6.733,2.622l13.995,5.453
	C41.337,29.364,41.545,28.718,41.545,27.926z"/>
<path fill="#29ABE2" d="M27.154,35.166v-6.453c2,0.988,4.003,1.681,5.541,2.085c1.515,0.397,2.864,0.599,4.129,0.603L22.951,26
	L3.799,33.462l18.131,7.064l9.886-3.819C30.12,36.378,29.154,35.873,27.154,35.166z"/>
<path fill="#29ABE2" d="M45.1,34.639l-0.074,0.031c-1.514,1.17-3.449,1.919-5.783,2.253l-13.287,5.172l20.15,7.854l19.147-7.458
	L45.1,34.639z"/>
<g>
	<polygon fill="#29ABE2" points="64.07,24.038 61.154,22.899 61.154,25.174 	"/>
	<path fill="#29ABE2" d="M53.154,27.84v-7.601l-7.717-3.269l-3.838,1.63c2.198,1.192,3.958,2.389,4.882,3.583
		c1.139,1.468,1.79,3.276,1.79,5.408c0,1.019-0.802,1.936-1.059,2.806L53.154,27.84z"/>
</g>
<path fill="#29ABE2" d="M77.854,35.555c-1.835-1.05-3.249-2.567-4.231-4.533c-0.576-1.15-0.964-2.426-1.204-3.797l-3.729-1.616
	l-6.537,2.711v0.529c0,0.968-0.142,1.687,0.404,2.152c0.542,0.461,0.331,0.69,1.231,0.69c1.194,0,2.365-0.258,3.365-0.782v5.087
	c-1,0.76-3.066,1.141-5.544,1.141c-2.739,0-4.36-0.692-5.611-2.072c-0.91-1.01-1.302-2.391-1.55-4.14l-5.409,2.147l20.197,7.85
	l11.121-4.324C79.465,36.338,78.638,36.007,77.854,35.555z"/>
<g>
	<g>
		<path fill="#FFFFFF" d="M50.401,25.548c0,2.956-1.064,5.286-3.192,6.988c-2.126,1.702-5.087,2.554-8.879,2.554
			c-3.495,0-6.588-0.656-9.274-1.97v-6.452c2.208,0.984,4.079,1.679,5.611,2.082c1.53,0.405,2.93,0.605,4.198,0.605
			c1.524,0,2.693-0.291,3.507-0.872c0.814-0.584,1.22-1.448,1.22-2.599c0-0.643-0.18-1.214-0.538-1.715
			c-0.359-0.5-0.885-0.981-1.579-1.443c-0.695-0.464-2.11-1.203-4.245-2.219c-2.003-0.94-3.503-1.845-4.503-2.71
			c-1-0.866-1.8-1.875-2.397-3.023c-0.598-1.15-0.896-2.494-0.896-4.033c0-2.896,0.982-5.175,2.945-6.831
			c1.964-1.659,4.679-2.487,8.144-2.487c1.702,0,3.326,0.2,4.871,0.604c1.546,0.403,3.163,0.971,4.851,1.703l-2.24,5.399
			c-1.746-0.718-3.192-1.218-4.334-1.502c-1.142-0.282-2.266-0.424-3.371-0.424c-1.314,0-2.323,0.306-3.025,0.918
			s-1.052,1.41-1.052,2.396c0,0.612,0.142,1.146,0.426,1.603c0.282,0.454,0.734,0.894,1.354,1.32
			c0.62,0.426,2.086,1.192,4.402,2.296c3.061,1.464,5.159,2.931,6.293,4.401C49.832,21.609,50.401,23.412,50.401,25.548z"/>
		<path fill="#FFFFFF" d="M66.349,29.646c1.194,0,2.628-0.262,4.301-0.783v5.084c-1.702,0.763-3.792,1.143-6.272,1.143
			c-2.733,0-4.723-0.69-5.969-2.072c-1.247-1.381-1.871-3.452-1.871-6.215V14.728h-3.271v-2.889l3.765-2.286l1.971-5.285h4.368V9.6
			h7.01v5.128h-7.01v12.075c0,0.97,0.273,1.687,0.816,2.149C64.734,29.415,65.454,29.646,66.349,29.646z"/>
		<path fill="#FFFFFF" d="M98.472,22.076c0,4.077-1.076,7.265-3.227,9.563c-2.15,2.302-5.145,3.451-8.982,3.451
			c-2.404,0-4.524-0.526-6.361-1.578c-1.838-1.056-3.249-2.566-4.235-4.537c-0.983-1.971-1.478-4.271-1.478-6.899
			c0-4.091,1.068-7.272,3.203-9.542c2.137-2.27,5.137-3.404,9.006-3.404c2.404,0,4.525,0.522,6.361,1.568
			c1.836,1.043,3.249,2.544,4.234,4.5C97.977,17.154,98.472,19.447,98.472,22.076z M81.156,22.076c0,2.478,0.406,4.352,1.22,5.623
			c0.814,1.27,2.138,1.902,3.977,1.902c1.821,0,3.131-0.63,3.931-1.892c0.798-1.261,1.198-3.139,1.198-5.633
			c0-2.479-0.403-4.339-1.21-5.577c-0.806-1.24-2.128-1.86-3.965-1.86c-1.822,0-3.134,0.616-3.943,1.849
			C81.559,17.719,81.156,19.581,81.156,22.076z"/>
		<path fill="#FFFFFF" d="M118.094,9.129c0.926,0,1.694,0.066,2.306,0.2l-0.514,6.407c-0.552-0.15-1.225-0.224-2.017-0.224
			c-2.181,0-3.878,0.561-5.095,1.681s-1.827,2.688-1.827,4.703v12.746h-6.831V9.6h5.173l1.007,4.21h0.336
			c0.776-1.404,1.827-2.534,3.148-3.393C115.103,9.557,116.541,9.129,118.094,9.129z"/>
		<path fill="#FFFFFF" d="M121.364,9.6h7.482l4.728,14.088c0.401,1.224,0.677,2.674,0.827,4.346h0.134
			c0.164-1.538,0.486-2.986,0.964-4.346L140.135,9.6h7.325l-10.595,28.245c-0.971,2.613-2.357,4.571-4.155,5.869
			c-1.8,1.3-3.902,1.948-6.306,1.948c-1.181,0-2.339-0.126-3.472-0.381v-5.42c0.819,0.194,1.715,0.292,2.688,0.292
			c1.209,0,2.265-0.371,3.169-1.11c0.904-0.738,1.608-1.854,2.116-3.349l0.405-1.232L121.364,9.6z"/>
		<path fill="#FFFFFF" d="M162.825,35.09c-1.598,0-3.058-0.296-4.379-0.885c-1.322-0.59-2.43-1.497-3.327-2.722h-0.27
			c0.181,1.435,0.27,2.792,0.27,4.076v10.103h-3.718V10.091h3.025l0.514,3.361h0.179c0.955-1.344,2.069-2.314,3.338-2.913
			c1.27-0.596,2.725-0.896,4.368-0.896c3.255,0,5.767,1.112,7.539,3.339c1.768,2.225,2.653,5.345,2.653,9.362
			c0,4.032-0.9,7.165-2.7,9.397C168.519,33.975,166.022,35.09,162.825,35.09z M162.288,12.802c-2.509,0-4.324,0.694-5.444,2.083
			c-1.12,1.39-1.693,3.601-1.725,6.631v0.828c0,3.45,0.575,5.918,1.725,7.403c1.151,1.487,2.995,2.229,5.533,2.229
			c2.121,0,3.78-0.857,4.983-2.574c1.202-1.72,1.804-4.085,1.804-7.102c0-3.061-0.602-5.409-1.804-7.045
			C166.157,13.62,164.468,12.802,162.288,12.802z"/>
		<path fill="#FFFFFF" d="M183.234,34.642h-3.719V-0.212h3.719V34.642z"/>
		<path fill="#FFFFFF" d="M206.214,34.642l-0.739-3.494h-0.179c-1.225,1.538-2.445,2.58-3.663,3.125
			c-1.217,0.545-2.736,0.817-4.559,0.817c-2.433,0-4.341-0.628-5.724-1.882c-1.38-1.254-2.071-3.038-2.071-5.354
			c0-4.957,3.966-7.555,11.896-7.795l4.163-0.134v-1.522c0-1.927-0.414-3.351-1.241-4.269c-0.828-0.918-2.155-1.376-3.977-1.376
			c-2.045,0-4.362,0.626-6.944,1.88l-1.142-2.844c1.21-0.656,2.535-1.173,3.977-1.544c1.439-0.374,2.885-0.561,4.332-0.561
			c2.928,0,5.098,0.648,6.508,1.949c1.412,1.298,2.118,3.382,2.118,6.249v16.755H206.214z M197.815,32.021
			c2.313,0,4.133-0.635,5.455-1.904c1.319-1.269,1.982-3.047,1.982-5.332v-2.218l-3.719,0.159c-2.957,0.104-5.089,0.563-6.396,1.376
			c-1.307,0.814-1.961,2.081-1.961,3.797c0,1.344,0.407,2.368,1.222,3.069C195.211,31.671,196.351,32.021,197.815,32.021z"/>
		<path fill="#FFFFFF" d="M233.429,34.642v-15.88c0-2.002-0.456-3.495-1.366-4.481c-0.91-0.987-2.337-1.479-4.279-1.479
			c-2.568,0-4.448,0.694-5.646,2.083c-1.193,1.39-1.789,3.683-1.789,6.877v12.88h-3.719v-24.55h3.024l0.604,3.361h0.179
			c0.762-1.21,1.83-2.147,3.205-2.811c1.372-0.667,2.904-0.999,4.59-0.999c2.957,0,5.184,0.714,6.676,2.141
			c1.494,1.426,2.24,3.707,2.24,6.843v16.015H233.429z"/>
	</g>
</g>
</svg>
